<svg width="1119" height="555" viewBox="0 0 1119 555" fill="none" xmlns="http://www.w3.org/2000/svg">
<g clip-path="url(#clip0_7_20)">
<path d="M246.2 70.5846C281.4 67.0744 312.8 91.2667 316.5 124.662L323 182.154L340.3 135.287C352 103.695 388.6 87.0923 421.9 98.1923C455.2 109.292 472.8 144.015 461.1 175.608L408.3 318.01C423.5 331.767 433 351.31 433 372.846V395.615C433 483.656 357.8 555 265 555H217C124.2 555 49 483.656 49 395.615V327.308V312.128V281.769C49 248.279 77.7 221.051 113 221.051C120.9 221.051 128.4 222.379 135.4 224.846C145.8 204.638 167.7 190.692 193 190.692C193.7 190.692 194.5 190.692 195.2 190.692L189.3 137.279C185.6 103.885 211.1 74.0949 246.3 70.5846H246.2ZM246.4 218.015C253.1 227.597 257 239.077 257 251.41V296.949C257 297.613 257 298.277 257 298.846C262.1 297.613 267.5 296.949 273 296.949H280.4L285.8 282.433L268.8 129.405C267.9 121.056 260 114.985 251.2 115.933C242.4 116.882 236 124.282 237 132.631L246.5 218.11L246.4 218.015ZM385.6 150.467L331.3 296.949H353C357 296.949 361 297.233 364.9 297.803L415.8 160.523C418.7 152.649 414.3 143.921 406 141.169C397.7 138.418 388.5 142.592 385.6 150.467ZM209 251.41C209 243.062 201.8 236.231 193 236.231C184.2 236.231 177 243.062 177 251.41V281.769V296.949C177 305.297 184.2 312.128 193 312.128C201.8 312.128 209 305.297 209 296.949V251.41ZM170.6 353.872C160.2 374.079 138.3 388.026 113 388.026C107.5 388.026 102.1 387.362 97 386.128V395.615C97 458.515 150.7 509.462 217 509.462H265C331.3 509.462 385 458.515 385 395.615V372.846C385 356.054 370.7 342.487 353 342.487H273C264.2 342.487 257 349.318 257 357.667C257 366.015 264.2 372.846 273 372.846H313C326.3 372.846 337 382.997 337 395.615C337 408.233 326.3 418.385 313 418.385H273C237.7 418.385 209 391.156 209 357.667C209 357.003 209 356.338 209 355.769C203.9 357.003 198.5 357.667 193 357.667C185.1 357.667 177.6 356.338 170.6 353.872ZM97 327.308C97 335.656 104.2 342.487 113 342.487C121.8 342.487 129 335.656 129 327.308V296.949V281.769C129 273.421 121.8 266.59 113 266.59C104.2 266.59 97 273.421 97 281.769V312.128V327.308Z" fill="white"/>
</g>
<path d="M454.891 333.469C455.349 328.198 457.068 323.5 460.047 319.375C463.255 315.021 465.661 310.552 467.266 305.969C468.182 302.99 468.755 299.896 468.984 296.688C469.443 293.25 469.672 289.927 469.672 286.719C469.901 283.281 470.245 279.958 470.703 276.75C471.161 273.312 471.964 269.99 473.109 266.781C471.964 264.719 471.505 262.427 471.734 259.906C471.964 257.385 472.078 254.75 472.078 252C473.224 250.396 474.141 248.562 474.828 246.5C475.516 244.438 477.12 243.062 479.641 242.375C481.932 237.333 483.078 232.177 483.078 226.906C483.078 221.406 483.651 215.792 484.797 210.062C485.026 208.917 485.484 207.885 486.172 206.969C486.859 206.052 487.432 205.021 487.891 203.875C489.495 199.062 490.297 194.021 490.297 188.75C490.297 183.25 491.214 178.094 493.047 173.281C494.422 172.823 496.141 172.135 498.203 171.219C500.266 170.073 502.328 169.042 504.391 168.125C506.682 166.979 508.859 166.062 510.922 165.375C512.984 164.688 514.818 164.458 516.422 164.688C517.568 165.146 518.714 165.833 519.859 166.75C521.005 167.438 522.38 168.354 523.984 169.5C525.13 170.188 526.161 170.99 527.078 171.906C528.224 172.823 529.37 173.625 530.516 174.312C531.432 174.771 532.578 175.229 533.953 175.688C535.557 175.917 536.589 176.26 537.047 176.719C537.276 176.948 537.964 177.75 539.109 179.125C540.484 180.5 541.745 181.99 542.891 183.594C544.266 185.198 545.526 186.802 546.672 188.406C547.818 189.781 548.505 190.698 548.734 191.156C548.964 192.531 548.849 194.135 548.391 195.969C547.932 197.573 547.245 199.292 546.328 201.125C545.641 202.729 544.839 204.448 543.922 206.281C543.234 207.885 542.661 209.375 542.203 210.75C541.516 213.271 540.828 215.792 540.141 218.312C539.453 220.604 538.536 223.01 537.391 225.531C536.245 228.51 534.984 231.948 533.609 235.844C532.234 239.74 531.318 243.865 530.859 248.219C530.401 251.427 529.141 253.833 527.078 255.438C525.245 257.042 523.984 259.333 523.297 262.312C522.839 264.375 522.609 266.552 522.609 268.844C522.609 271.135 522.609 273.427 522.609 275.719C522.839 277.781 522.839 279.844 522.609 281.906C522.609 283.969 522.151 285.917 521.234 287.75C520.547 288.896 519.516 289.812 518.141 290.5C516.766 290.958 515.62 291.76 514.703 292.906C513.328 295.198 512.068 298.062 510.922 301.5C510.005 304.938 509.203 308.604 508.516 312.5C507.828 316.167 507.484 319.948 507.484 323.844C507.714 327.51 508.401 330.833 509.547 333.812C508.401 337.479 506.339 340.688 503.359 343.438C500.609 346.188 497.286 348.365 493.391 349.969C489.495 351.344 485.255 352.031 480.672 352.031C476.318 352.26 471.849 351.573 467.266 349.969C465.432 347.219 463.255 344.698 460.734 342.406C458.214 339.885 456.266 336.906 454.891 333.469ZM729.891 190.469C723.703 193.448 717.516 194.938 711.328 194.938C705.141 194.938 698.266 194.708 690.703 194.25C688.641 194.25 686.349 194.365 683.828 194.594C681.536 194.823 679.359 195.052 677.297 195.281C666.526 196.427 657.474 200.552 650.141 207.656C642.807 214.531 637.422 223.24 633.984 233.781C632.839 237.677 631.922 241.229 631.234 244.438C630.547 247.646 632.036 249.479 635.703 249.938C637.995 250.396 640.286 250.396 642.578 249.938C644.87 249.479 647.161 248.906 649.453 248.219C651.974 247.302 654.38 246.5 656.672 245.812C658.964 245.125 661.255 244.781 663.547 244.781C664.464 244.781 665.266 245.01 665.953 245.469C666.87 245.927 667.786 246.156 668.703 246.156C672.599 246.615 676.724 246.385 681.078 245.469C685.432 244.323 689.443 244.208 693.109 245.125C693.797 245.354 694.37 245.812 694.828 246.5C695.516 246.958 696.432 247.417 697.578 247.875C700.557 249.021 704.109 249.823 708.234 250.281C712.359 250.51 715.682 251.198 718.203 252.344C719.349 252.802 720.495 253.719 721.641 255.094C722.786 256.24 723.359 257.042 723.359 257.5C723.359 260.021 721.87 261.625 718.891 262.312C715.911 263 713.391 263.458 711.328 263.688C709.495 263.917 707.661 263.917 705.828 263.688C703.995 263.458 702.161 263.573 700.328 264.031C697.12 264.49 694.026 265.177 691.047 266.094C688.068 266.781 684.859 267.698 681.422 268.844C677.526 270.219 673.859 271.938 670.422 274C666.984 275.833 663.203 276.979 659.078 277.438C656.099 277.896 653.234 277.896 650.484 277.438C647.734 276.979 644.755 276.979 641.547 277.438C640.401 277.667 639.255 278.01 638.109 278.469C637.193 278.927 636.161 279.271 635.016 279.5C632.953 279.958 631.349 280.302 630.203 280.531C629.286 280.531 628.484 280.76 627.797 281.219C627.339 281.677 626.766 282.365 626.078 283.281C625.62 284.198 624.818 285.573 623.672 287.406C621.839 291.531 620.693 296 620.234 300.812C619.776 305.396 619.318 310.323 618.859 315.594C621.38 318.115 623.786 320.177 626.078 321.781C628.37 323.156 631.922 323.844 636.734 323.844C639.255 323.844 641.203 323.615 642.578 323.156C644.182 322.469 646.245 322.01 648.766 321.781C651.286 321.781 653.807 322.01 656.328 322.469C658.849 322.698 661.714 322.698 664.922 322.469C671.568 322.01 677.182 321.208 681.766 320.062C686.349 318.688 691.964 318.229 698.609 318.688C699.984 318.688 702.391 318.802 705.828 319.031C709.495 319.26 713.161 319.604 716.828 320.062C720.495 320.292 723.703 320.75 726.453 321.438C729.432 322.125 730.922 323.042 730.922 324.188C730.922 325.562 730.005 327.052 728.172 328.656C726.568 330.031 724.62 331.406 722.328 332.781C720.266 333.927 718.089 334.958 715.797 335.875C713.734 336.562 712.359 337.021 711.672 337.25C707.776 338.396 703.995 338.74 700.328 338.281C696.661 337.594 692.651 337.479 688.297 337.938C685.089 338.396 682.224 339.083 679.703 340C677.182 340.917 674.661 341.948 672.141 343.094C669.62 344.01 666.984 345.042 664.234 346.188C661.714 347.104 658.734 347.677 655.297 347.906C650.714 348.365 646.818 348.938 643.609 349.625C640.401 350.083 636.62 350.771 632.266 351.688C630.432 352.146 628.714 352.604 627.109 353.062C625.505 353.75 623.786 354.323 621.953 354.781C615.307 356.156 608.089 356.385 600.297 355.469C592.734 354.781 584.484 354.896 575.547 355.812C569.818 356.5 564.661 357.302 560.078 358.219C555.724 359.365 551.255 359.708 546.672 359.25C545.068 359.021 543.578 358.792 542.203 358.562C540.599 358.562 539.224 357.99 538.078 356.844C538.536 355.01 539.568 353.406 541.172 352.031C542.776 350.656 544.38 349.396 545.984 348.25C547.589 346.875 549.078 345.5 550.453 344.125C552.057 342.521 553.547 341.031 554.922 339.656C556.297 337.823 557.443 335.646 558.359 333.125C559.276 330.375 560.078 327.625 560.766 324.875C561.682 322.125 562.599 319.604 563.516 317.312C564.661 314.792 566.036 312.615 567.641 310.781C565.807 306.656 565.807 301.958 567.641 296.688C569.703 291.417 571.536 285.917 573.141 280.188C573.599 278.812 573.828 277.438 573.828 276.062C573.828 274.688 574.057 273.427 574.516 272.281C574.974 269.99 576.005 268.042 577.609 266.438C579.214 264.604 580.245 262.771 580.703 260.938C580.932 259.792 580.932 258.646 580.703 257.5C580.703 256.354 580.818 255.208 581.047 254.062C581.505 250.625 582.307 247.417 583.453 244.438C584.828 241.229 585.745 238.365 586.203 235.844C586.661 234.01 586.661 232.177 586.203 230.344C585.974 228.281 585.974 226.333 586.203 224.5C586.661 219.917 587.578 215.562 588.953 211.438C590.557 207.312 591.474 203.646 591.703 200.438C591.932 197.917 591.589 195.167 590.672 192.188C589.755 189.208 588.839 186.917 587.922 185.312C587.234 184.167 586.203 183.021 584.828 181.875C583.453 180.5 582.078 179.24 580.703 178.094C579.328 176.948 578.068 175.917 576.922 175C576.005 173.854 575.547 172.823 575.547 171.906C575.776 169.385 576.807 168.125 578.641 168.125C580.474 167.896 582.193 167.094 583.797 165.719C592.047 165.948 599.839 166.865 607.172 168.469C614.734 170.073 622.526 171.104 630.547 171.562C633.526 172.021 636.62 172.021 639.828 171.562C643.036 170.875 646.13 170.417 649.109 170.188C653.922 169.958 659.307 170.646 665.266 172.25C671.453 173.854 677.526 174.427 683.484 173.969C691.505 173.51 699.068 173.281 706.172 173.281C713.276 173.281 720.724 173.052 728.516 172.594C729.891 173.74 731.953 174.312 734.703 174.312C737.453 174.083 740.203 173.854 742.953 173.625C745.932 173.167 748.568 173.052 750.859 173.281C753.38 173.51 755.099 174.542 756.016 176.375C757.391 179.583 757.161 182.333 755.328 184.625C753.495 186.917 750.974 188.406 747.766 189.094C746.849 189.094 745.589 189.208 743.984 189.438C742.38 189.667 740.661 189.896 738.828 190.125C736.995 190.354 735.161 190.469 733.328 190.469C731.724 190.469 730.578 190.469 729.891 190.469ZM943.359 360.625C938.089 360.167 933.047 360.052 928.234 360.281C923.651 360.74 919.641 359.823 916.203 357.531C915.745 357.073 915.286 356.385 914.828 355.469C914.599 354.781 914.141 353.865 913.453 352.719C911.62 350.427 910.245 348.365 909.328 346.531C908.411 344.469 907.609 341.719 906.922 338.281C906.464 337.365 906.005 336.562 905.547 335.875C905.089 334.958 904.745 334.042 904.516 333.125C904.057 331.75 903.943 330.031 904.172 327.969C904.401 325.906 904.286 323.958 903.828 322.125C903.141 319.146 902.109 316.51 900.734 314.219C899.589 311.927 899.703 309.177 901.078 305.969C899.245 303.219 897.526 299.438 895.922 294.625C894.547 289.583 893.63 284.427 893.172 279.156C892.943 275.26 892.943 270.333 893.172 264.375C893.401 258.188 893.057 253.26 892.141 249.594C889.849 250.51 887.786 252.115 885.953 254.406C884.349 256.698 882.745 259.104 881.141 261.625C879.766 264.146 878.276 266.667 876.672 269.188C875.068 271.479 873.234 273.198 871.172 274.344C869.339 276.865 867.62 280.531 866.016 285.344C864.641 290.156 863.38 293.938 862.234 296.688C859.943 301.958 856.505 306.198 851.922 309.406C847.568 312.385 843.443 315.708 839.547 319.375C837.484 321.438 835.651 323.844 834.047 326.594C832.443 329.344 830.839 332.208 829.234 335.188C827.859 338.167 826.37 341.031 824.766 343.781C823.161 346.531 821.214 348.938 818.922 351C817.547 352.146 816.172 352.948 814.797 353.406C813.422 353.865 812.161 354.896 811.016 356.5C806.203 358.104 801.849 358.906 797.953 358.906C794.057 359.135 790.505 357.99 787.297 355.469C785.922 354.552 784.547 352.833 783.172 350.312C782.026 347.792 780.995 345.042 780.078 342.062C779.391 338.854 778.818 335.531 778.359 332.094C778.13 328.656 778.016 325.677 778.016 323.156C778.245 321.323 778.703 319.604 779.391 318C780.307 316.396 780.766 314.677 780.766 312.844C780.766 311.469 780.307 310.208 779.391 309.062C778.703 307.688 778.245 306.312 778.016 304.938C778.016 303.104 778.474 301.615 779.391 300.469C780.307 299.094 780.766 297.833 780.766 296.688C780.766 295.083 780.078 293.594 778.703 292.219C777.557 290.844 776.87 289.24 776.641 287.406C776.641 284.656 776.297 281.448 775.609 277.781C775.151 274.115 774.693 270.448 774.234 266.781C773.776 262.885 773.318 259.104 772.859 255.438C772.63 251.771 772.745 248.677 773.203 246.156C773.661 244.552 774.234 243.062 774.922 241.688C775.609 240.312 775.953 238.938 775.953 237.562C776.182 234.354 775.38 231.146 773.547 227.938C771.943 224.5 771.141 220.948 771.141 217.281C771.141 213.385 771.599 209.375 772.516 205.25C773.432 200.896 774.005 196.771 774.234 192.875C774.464 189.438 774.464 186.115 774.234 182.906C774.005 179.469 774.807 176.146 776.641 172.938C778.245 170.417 780.307 168.583 782.828 167.438C785.578 166.062 788.443 165.031 791.422 164.344C793.943 165.719 796.234 166.75 798.297 167.438C800.359 168.125 802.307 169.5 804.141 171.562C805.745 173.396 807.12 175.573 808.266 178.094C809.641 180.385 811.13 182.104 812.734 183.25C815.026 184.625 816.859 185.312 818.234 185.312C819.609 185.083 821.099 186.115 822.703 188.406C824.307 190.698 825.339 193.448 825.797 196.656C826.255 199.865 826.37 203.302 826.141 206.969C826.141 210.406 825.911 213.958 825.453 217.625C825.224 221.062 825.224 224.385 825.453 227.594C825.682 229.427 825.797 231.146 825.797 232.75C825.797 234.125 825.682 236.302 825.453 239.281C825.224 241.802 825.682 244.438 826.828 247.188C827.974 249.938 828.318 252.229 827.859 254.062C827.63 255.438 826.943 256.583 825.797 257.5C824.651 258.188 823.964 259.448 823.734 261.281C823.505 263.115 823.964 264.833 825.109 266.438C826.484 267.812 827.286 269.417 827.516 271.25C828.432 275.146 828.547 278.698 827.859 281.906C827.172 284.885 827.172 287.979 827.859 291.188C831.068 289.354 833.589 286.948 835.422 283.969C837.484 280.99 839.432 278.24 841.266 275.719C843.557 273.198 844.818 270.677 845.047 268.156C845.276 265.406 846.307 262.771 848.141 260.25C849.745 258.188 851.807 255.323 854.328 251.656C857.078 247.99 859.37 245.24 861.203 243.406C862.12 242.26 863.036 240.083 863.953 236.875C865.099 233.667 866.13 231.49 867.047 230.344C869.109 227.365 871.401 224.5 873.922 221.75C876.443 218.771 878.964 216.021 881.484 213.5C884.693 215.333 887.443 215.448 889.734 213.844C892.255 212.24 892.714 209.948 891.109 206.969C892.255 205.135 893.745 202.958 895.578 200.438C897.411 197.917 899.474 195.74 901.766 193.906C905.203 191.615 908.87 190.698 912.766 191.156C916.891 191.615 920.786 193.104 924.453 195.625C926.286 198.833 927.089 202.156 926.859 205.594C926.859 208.802 926.974 212.125 927.203 215.562C927.203 217.625 927.547 219.688 928.234 221.75C928.922 223.812 929.266 226.104 929.266 228.625C929.266 230.917 929.151 233.552 928.922 236.531C928.922 239.51 928.807 242.604 928.578 245.812C928.578 248.792 928.464 251.885 928.234 255.094C928.234 258.073 928.464 260.823 928.922 263.344C930.297 265.406 931.214 267.927 931.672 270.906C932.359 273.885 932.818 276.979 933.047 280.188C933.276 283.396 933.505 286.604 933.734 289.812C934.193 292.792 934.995 295.427 936.141 297.719C938.891 297.719 940.38 297.146 940.609 296C941.068 294.854 941.87 293.25 943.016 291.188C944.161 288.667 944.964 286.833 945.422 285.688C946.109 284.542 946.568 283.51 946.797 282.594C947.255 281.677 947.714 280.646 948.172 279.5C948.63 278.354 949.432 276.521 950.578 274C951.724 271.479 952.87 269.073 954.016 266.781C955.391 264.26 956.536 261.74 957.453 259.219C958.37 256.698 958.828 254.75 958.828 253.375C959.057 252 960.318 250.396 962.609 248.562C963.984 247.417 965.474 246.385 967.078 245.469C968.682 244.552 969.828 243.177 970.516 241.344C970.974 240.198 971.089 239.167 970.859 238.25C970.859 237.333 971.089 236.417 971.547 235.5C972.464 231.604 973.724 227.708 975.328 223.812C976.932 219.917 978.193 216.25 979.109 212.812C979.797 209.375 980.37 206.052 980.828 202.844C981.516 199.635 983.234 196.771 985.984 194.25C987.359 189.896 988.62 186.573 989.766 184.281C990.911 181.99 992.172 179.927 993.547 178.094C994.922 176.26 996.297 174.312 997.672 172.25C999.047 169.958 1000.54 166.865 1002.14 162.969C1006.72 163.885 1010.62 165.604 1013.83 168.125C1017.27 170.417 1019.9 174.083 1021.73 179.125C1022.42 181.646 1023.22 183.938 1024.14 186C1025.06 188.062 1024.94 190.583 1023.8 193.562C1023.11 195.396 1022.42 196.656 1021.73 197.344C1021.05 198.031 1020.24 198.604 1019.33 199.062C1018.64 199.521 1017.84 200.323 1016.92 201.469C1016.23 202.385 1015.55 204.219 1014.86 206.969C1014.63 208.115 1014.63 209.26 1014.86 210.406C1015.09 211.552 1015.09 212.812 1014.86 214.188C1014.4 216.708 1013.6 219.344 1012.45 222.094C1011.54 224.844 1010.85 226.677 1010.39 227.594C1009.24 229.198 1007.64 230.458 1005.58 231.375C1003.74 232.062 1002.14 233.094 1000.77 234.469C1000.08 235.615 999.161 236.875 998.016 238.25C997.099 239.625 996.411 241 995.953 242.375C993.432 247.646 991.599 253.146 990.453 258.875C989.307 264.375 987.589 270.104 985.297 276.062C983.922 279.5 982.432 281.906 980.828 283.281C979.224 284.656 977.734 285.917 976.359 287.062C974.984 288.208 973.839 289.812 972.922 291.875C972.005 293.708 971.547 297.031 971.547 301.844C969.255 306.885 967.307 312.156 965.703 317.656C964.099 322.927 962.151 328.312 959.859 333.812C957.568 339.083 955.161 343.896 952.641 348.25C950.349 352.375 947.255 356.5 943.359 360.625Z" fill="white"/>
<defs>
<clipPath id="clip0_7_20">
<rect width="513.817" height="485.744" fill="white" transform="translate(0 69.2564)"/>
</clipPath>
</defs>
</svg>
